{"title":"X-Men Days of Future Past 2014 R6 HDTS XviD AC3-NoGroup","uid":10294263,"size":2630820437,"categoryP":"video","categoryS":"movies","magnet":"?xt=urn:btih:b76a601ce811f6af70e58a7ebf19acb61cdcf1b8&amp;dn=X-Men+Days+of+Future+Past+2014+R6+HDTS+XviD+AC3-NoGroup&amp;tr=udp%3A%2F%2Ftracker.openbittorrent.com%3A80&amp;tr=udp%3A%2F%2Fopen.demonii.com%3A1337&amp;tr=udp%3A%2F%2Ftracker.coppersurfer.tk%3A6969&amp;tr=udp%3A%2F%2Fexodus.desync.com%3A6969","seeders":1,"leechers":0,"uploader":"Xetron","files":3,"time":1401901673,"description":" &lt;a href=&quot;http://i.imgur.com/TzPtPoW.jpg&quot; rel=&quot;nofollow&quot; target=&quot;_NEW&quot;&gt;http://i.imgur.com/TzPtPoW.jpg&lt;/a&gt;\n\niMDB: http://www.imdb.com/title/tt1877832/\n\nThe X-Men send Wolverine to the past in a desperate effort to change history and prevent an event that results in doom for both humans and mutants\n\n\nGeneral\nFormat                                   : AVI\nFormat/Info                              : Audio Video Interleave\nFormat profile                           : OpenDML\nFile size                                : 2.38 GiB\nDuration                                 : 2h 6mn\nOverall bit rate                         : 2 696 Kbps\nWriting application                      : AVI-Mux GUI 1.17.8.3, Feb 16 201019:42:50\n\nVideo\nID                                       : 0\nFormat                                   : MPEG-4 Visual\nFormat profile                           : Advanced Simple@L5\nFormat settings, BVOP                    : 2\nFormat settings, QPel                    : No\nFormat settings, GMC                     : No warppoints\nFormat settings, Matrix                  : Default (H.263)\nMuxing mode                              : Packed bitstream\nCodec ID                                 : XVID\nCodec ID/Hint                            : XviD\nDuration                                 : 2h 6mn\nBit rate                                 : 2 307 Kbps\nWidth                                    : 720 pixels\nHeight                                   : 304 pixels\nDisplay aspect ratio                     : 2.35:1\nFrame rate                               : 25.000 fps\nColor space                              : YUV\nChroma subsampling                       : 4:2:0\nBit depth                                : 8 bits\nScan type                                : Progressive\nCompression mode                         : Lossy\nBits/(Pixel*Frame)                       : 0.422\nStream size                              : 2.04 GiB (86%)\nWriting library                          : XviD 64\n\nAudio\nID                                       : 1\nFormat                                   : AC-3\nFormat/Info                              : Audio Coding 3\nMode extension                           : CM (complete main)\nFormat settings, Endianness              : Big\nCodec ID                                 : 2000\nDuration                                 : 2h 6mn\nBit rate mode                            : Constant\nBit rate                                 : 384 Kbps\nChannel count                            : 6 channels\nChannel positions                        : Front: L C R, Side: L R, LFE\nSampling rate                            : 48.0 KHz\nBit depth                                : 16 bits\nCompression mode                         : Lossy\nStream size                              : 347 MiB (14%)\nAlignment                                : Aligned on interleaves\nInterleave, duration                     : 64 ms (1.60 video frames)\nInterleave, preload duration             : 192 ms\n\n &lt;a href=&quot;\nhttp://i.imgur.com/dqIDLde.png&quot; rel=&quot;nofollow&quot; target=&quot;_NEW&quot;&gt;\nhttp://i.imgur.com/dqIDLde.png&lt;/a&gt; &lt;a href=&quot;\nhttp://i.imgur.com/7WX8a8A.png&quot; rel=&quot;nofollow&quot; target=&quot;_NEW&quot;&gt;\nhttp://i.imgur.com/7WX8a8A.png&lt;/a&gt; &lt;a href=&quot;\nhttp://i.imgur.com/jFzftl0.png&quot; rel=&quot;nofollow&quot; target=&quot;_NEW&quot;&gt;\nhttp://i.imgur.com/jFzftl0.png&lt;/a&gt;","torrent":{"xt":"urn:btih:b76a601ce811f6af70e58a7ebf19acb61cdcf1b8","amp;dn":"X-Men+Days+of+Future+Past+2014+R6+HDTS+XviD+AC3-NoGroup","amp;tr":["udp%3A%2F%2Ftracker.openbittorrent.com%3A80","udp%3A%2F%2Fopen.demonii.com%3A1337","udp%3A%2F%2Ftracker.coppersurfer.tk%3A6969","udp%3A%2F%2Fexodus.desync.com%3A6969"],"infoHash":"b76a601ce811f6af70e58a7ebf19acb61cdcf1b8","infoHashBuffer":{"type":"Buffer","data":[183,106,96,28,232,17,246,175,112,229,138,126,191,25,172,182,28,220,241,184]},"announce":[],"urlList":[]}}